<?xml version="1.0" encoding="UTF-8"?><svg id="Layer_1" xmlns="http://www.w3.org/2000/svg" width="1366" height="768" viewBox="0 0 1366 768"><defs><style>.cls-1{fill:#ebe3d5;}.cls-2{fill:#f2bb05;}.cls-3{fill:#b12d20;}.cls-4{fill:#170f02;}.cls-5{fill:#4464ad;}.cls-6{isolation:isolate;}</style></defs><rect id="Rectangle_28" class="cls-1" x=".51" y="-.08" width="1366" height="768"/><rect id="Rectangle_44" class="cls-3" x="1213.36" y="-36.15" width="392" height="396" transform="translate(564.51 1301.47) rotate(-60)"/><rect id="Rectangle_17" class="cls-4" x="1039.3" y="73.98" width="393" height="20" transform="translate(545.17 1112.23) rotate(-60)"/><rect id="Rectangle_8" class="cls-4" x="1310.68" y="168.97" width="20" height="357" transform="translate(359.42 1317.48) rotate(-60)"/><rect id="Rectangle_29" class="cls-4" x="1053.57" y="688.75" width="208" height="20" transform="translate(-26.35 1351.86) rotate(-60)"/><rect id="Rectangle_30" class="cls-4" x="1041.69" y="708.17" width="116.97" height="20" transform="translate(-71.87 1311.86) rotate(-60)"/><rect id="Rectangle_31" class="cls-4" x="959.04" y="605.02" width="309" height="20" transform="translate(24.15 1271.86) rotate(-60)"/><rect id="Rectangle_32" class="cls-4" x="975.65" y="578.52" width="214" height="20" transform="translate(31.65 1231.86) rotate(-60)"/><rect id="Rectangle_33" class="cls-4" x="857.26" y="675" width="247" height="20" transform="translate(-102.85 1191.86) rotate(-60)"/><rect id="Rectangle_34" class="cls-4" x="853.76" y="564.42" width="289.31" height="20" transform="translate(1.75 1151.86) rotate(-60)"/><rect id="Rectangle_37" class="cls-4" x="777.2" y="337.75" width="20" height="206" transform="translate(11.9 902.11) rotate(-60)"/><rect id="Rectangle_35" class="cls-4" x="809.54" y="646.38" width="190.72" height="20" transform="translate(-115.99 1111.86) rotate(-60)"/><rect id="Rectangle_36" class="cls-4" x="756.83" y="508.48" width="363" height="20" transform="translate(20.15 1071.86) rotate(-60)"/><rect id="Rectangle_38" class="cls-4" x="976.74" y="336.65" width="213.99" height="20" transform="translate(241.66 1111.86) rotate(-60)"/><rect id="Rectangle_42" class="cls-4" x="824.73" y="142.94" width="20" height="281" transform="translate(171.9 864.61) rotate(-60)"/><rect id="Rectangle_41" class="cls-4" x="767.05" y="112.33" width="20" height="368" transform="translate(131.9 821.11) rotate(-60)"/><rect id="Rectangle_40" class="cls-4" x="807.24" y="251.22" width="20" height="229" transform="translate(91.9 890.61) rotate(-60)"/><rect id="Rectangle_39" class="cls-4" x="785.08" y="282.11" width="20" height="234" transform="translate(51.9 888.11) rotate(-60)"/><path id="Polygon_2" class="cls-2" d="m449.11,416.6l.55,140.04-122.11-70.5,121.55-69.54Z"/><circle id="Ellipse_2" class="cls-5" cx="1146.01" cy="397.42" r="60.5"/><rect id="Rectangle_56" class="cls-4" x="211.35" y="787.32" width="281" height="20" transform="translate(-514.57 703.37) rotate(-60)"/><rect id="Rectangle_57" class="cls-4" x="180.74" y="844.99" width="368" height="20" transform="translate(-558.07 743.37) rotate(-60)"/><rect id="Rectangle_58" class="cls-4" x="319.63" y="804.8" width="229" height="20" transform="translate(-488.57 783.37) rotate(-60)"/><rect id="Rectangle_55" class="cls-4" x="734.81" y="532.76" width="20" height="227.12" transform="translate(-187.32 968.18) rotate(-60)"/><rect id="Rectangle_60" class="cls-4" x="350.53" y="826.97" width="234" height="20" transform="translate(-491.07 823.37) rotate(-60)"/><rect id="Rectangle_50" class="cls-4" x="632.83" y="488.98" width="20" height="289.31" transform="translate(-227.32 873.53) rotate(-60)"/><rect id="Rectangle_62" class="cls-4" x="406.17" y="834.84" width="206" height="20" transform="translate(-477.07 863.37) rotate(-60)"/><rect id="Rectangle_59" class="cls-4" x="714.8" y="631.78" width="20" height="190.72" transform="translate(-267.32 991.26) rotate(-60)"/><rect id="Rectangle_52" class="cls-4" x="576.9" y="512.21" width="20" height="363" transform="translate(-307.32 855.12) rotate(-60)"/><rect id="Rectangle_53" class="cls-4" x="517.06" y="508.85" width="20" height="393" transform="translate(-347.32 809.12) rotate(-60)"/><rect id="Rectangle_54" class="cls-4" x="85.07" y="780.23" width="357" height="20" transform="translate(-552.57 623.37) rotate(-60)"/><rect id="Rectangle_48" class="cls-4" x="646.94" y="442.4" width="20" height="214" transform="translate(-147.32 843.62) rotate(-60)"/><rect id="Rectangle_51" class="cls-4" x="405.07" y="441.32" width="20" height="213.99" transform="translate(-267.32 633.62) rotate(-60)"/><rect id="Rectangle_46" class="cls-4" x="757.17" y="370.47" width="20" height="208" transform="translate(-27.32 901.62) rotate(-60)"/><rect id="Rectangle_47" class="cls-4" x="673.43" y="364.01" width="20" height="309" transform="translate(-107.32 851.12) rotate(-60)"/><rect id="Rectangle_49" class="cls-4" x="776.58" y="473.39" width="20" height="116.97" transform="translate(-67.32 947.14) rotate(-60)"/><g id="EM" class="cls-6"><g class="cls-6"><path class="cls-4" d="m777.31,135.2l23.43,13.53-13.78,23.87,17.47,10.08-6.56,11.37-17.47-10.08-13.83,23.96-23.43-13.53,34.17-59.19Zm-.86,72.91c3.47-6.01,9.31-8.08,17.52-6.2,3.14.73,6.82,2.31,11.03,4.74l3.44,1.99-10.21,17.68-24.22-13.98,2.44-4.23Zm31.83-55.03l24.17,13.96-9.51,16.46-4.53-2.62c-7.87-4.54-12.53-8.88-13.98-13.01-1.18-3.39-.46-7.35,2.16-11.88l1.68-2.92Z"/><path class="cls-4" d="m845.71,174.64l24.22,13.98-34.25,59.32-24.22-13.98,34.25-59.32Zm32.41,18.71l24.22,13.98-34.25,59.32-24.22-13.98,34.25-59.32Zm32.32,18.66l3.92,2.26c10.69,6.17,14.98,13.49,12.88,21.95-.69,2.74-1.92,5.65-3.7,8.72l-23.26,40.29-24.08-13.91,34.25-59.32Z"/></g></g><g id="MA" class="cls-6"><g class="cls-6"><path class="cls-4" d="m908.77,291.82l13.98-24.22,59.32,34.25-13.98,24.22-59.32-34.25Zm18.71-32.4l13.98-24.22,59.32,34.25-13.98,24.22-59.32-34.25Zm18.66-32.32l2.26-3.92c6.17-10.69,13.49-14.98,21.95-12.88,2.74.69,5.65,1.92,8.72,3.7l40.29,23.26-13.91,24.09-59.32-34.25Z"/><path class="cls-4" d="m986.46,201.3c-6.42-3.7-10.27-7.89-11.57-12.55-1.42-5.12-.03-11.32,4.18-18.61l2.26-3.92,59.28,34.22-13.91,24.09-40.24-23.24Zm-.48-43.13l2.26-3.92c6.17-10.69,13.46-14.97,21.88-12.86,2.78.68,5.71,1.91,8.79,3.68l40.24,23.24-13.91,24.09-59.28-34.22Z"/></g></g></svg>