<?xml version="1.0" encoding="UTF-8"?><svg id="Layer_1" xmlns="http://www.w3.org/2000/svg" width="1366" height="768" viewBox="0 0 1366 768"><defs><style>.cls-1{fill:#f2bb05;}.cls-2{fill:#b12d20;}.cls-3{fill:#170f02;}.cls-4{fill:#4464ad;}.cls-5{isolation:isolate;}</style></defs><rect id="Rectangle_44" class="cls-2" x="1212.85" y="-36.07" width="392" height="396" transform="translate(564.19 1301.07) rotate(-60)"/><rect id="Rectangle_17" class="cls-3" x="1038.79" y="74.06" width="393" height="20" transform="translate(544.84 1111.82) rotate(-60)"/><rect id="Rectangle_8" class="cls-3" x="1310.16" y="169.05" width="20" height="357" transform="translate(359.09 1317.07) rotate(-60)"/><rect id="Rectangle_29" class="cls-3" x="1053.06" y="688.83" width="208" height="20" transform="translate(-26.68 1351.46) rotate(-60)"/><rect id="Rectangle_30" class="cls-3" x="1041.17" y="708.25" width="116.97" height="20" transform="translate(-72.19 1311.46) rotate(-60)"/><rect id="Rectangle_31" class="cls-3" x="958.53" y="605.1" width="309" height="20" transform="translate(23.82 1271.46) rotate(-60)"/><rect id="Rectangle_32" class="cls-3" x="975.13" y="578.6" width="214" height="20" transform="translate(31.32 1231.46) rotate(-60)"/><rect id="Rectangle_33" class="cls-3" x="856.74" y="675.08" width="247" height="20" transform="translate(-103.18 1191.46) rotate(-60)"/><rect id="Rectangle_34" class="cls-3" x="853.25" y="564.5" width="289.31" height="20" transform="translate(1.42 1151.46) rotate(-60)"/><rect id="Rectangle_37" class="cls-3" x="776.69" y="337.83" width="20" height="206" transform="translate(11.57 901.71) rotate(-60)"/><rect id="Rectangle_35" class="cls-3" x="809.03" y="646.46" width="190.72" height="20" transform="translate(-116.32 1111.46) rotate(-60)"/><rect id="Rectangle_36" class="cls-3" x="756.32" y="508.56" width="363" height="20" transform="translate(19.82 1071.46) rotate(-60)"/><rect id="Rectangle_38" class="cls-3" x="976.22" y="336.73" width="213.99" height="20" transform="translate(241.33 1111.46) rotate(-60)"/><rect id="Rectangle_42" class="cls-3" x="824.21" y="143.02" width="20" height="281" transform="translate(171.57 864.21) rotate(-60)"/><rect id="Rectangle_41" class="cls-3" x="766.54" y="112.41" width="20" height="368" transform="translate(131.57 820.71) rotate(-60)"/><rect id="Rectangle_40" class="cls-3" x="806.73" y="251.3" width="20" height="229" transform="translate(91.57 890.21) rotate(-60)"/><rect id="Rectangle_39" class="cls-3" x="784.56" y="282.19" width="20" height="234" transform="translate(51.57 887.71) rotate(-60)"/><path id="Polygon_2" class="cls-1" d="m448.6,416.69l.55,140.04-122.11-70.5,121.55-69.54Z"/><circle id="Ellipse_2" class="cls-4" cx="1145.5" cy="397.5" r="60.5"/><rect id="Rectangle_56" class="cls-3" x="210.84" y="787.4" width="281" height="20" transform="translate(-514.9 702.97) rotate(-60)"/><rect id="Rectangle_57" class="cls-3" x="180.23" y="845.07" width="368" height="20" transform="translate(-558.4 742.97) rotate(-60)"/><rect id="Rectangle_58" class="cls-3" x="319.12" y="804.89" width="229" height="20" transform="translate(-488.9 782.97) rotate(-60)"/><rect id="Rectangle_55" class="cls-3" x="734.29" y="532.84" width="20" height="227.12" transform="translate(-187.65 967.78) rotate(-60)"/><rect id="Rectangle_60" class="cls-3" x="350.01" y="827.05" width="234" height="20" transform="translate(-491.4 822.97) rotate(-60)"/><rect id="Rectangle_50" class="cls-3" x="632.32" y="489.06" width="20" height="289.31" transform="translate(-227.65 873.12) rotate(-60)"/><rect id="Rectangle_62" class="cls-3" x="405.65" y="834.92" width="206" height="20" transform="translate(-477.4 862.97) rotate(-60)"/><rect id="Rectangle_59" class="cls-3" x="714.28" y="631.86" width="20" height="190.72" transform="translate(-267.65 990.86) rotate(-60)"/><rect id="Rectangle_52" class="cls-3" x="576.38" y="512.29" width="20" height="363" transform="translate(-307.65 854.72) rotate(-60)"/><rect id="Rectangle_53" class="cls-3" x="516.54" y="508.93" width="20" height="393" transform="translate(-347.65 808.72) rotate(-60)"/><rect id="Rectangle_54" class="cls-3" x="84.56" y="780.31" width="357" height="20" transform="translate(-552.9 622.97) rotate(-60)"/><rect id="Rectangle_48" class="cls-3" x="646.42" y="442.48" width="20" height="214" transform="translate(-147.65 843.22) rotate(-60)"/><rect id="Rectangle_51" class="cls-3" x="404.55" y="441.4" width="20" height="213.99" transform="translate(-267.65 633.21) rotate(-60)"/><rect id="Rectangle_46" class="cls-3" x="756.65" y="370.56" width="20" height="208" transform="translate(-27.65 901.22) rotate(-60)"/><rect id="Rectangle_47" class="cls-3" x="672.92" y="364.09" width="20" height="309" transform="translate(-107.65 850.72) rotate(-60)"/><rect id="Rectangle_49" class="cls-3" x="776.07" y="473.47" width="20" height="116.97" transform="translate(-67.65 946.73) rotate(-60)"/><g id="EM" class="cls-5"><g class="cls-5"><path class="cls-3" d="m776.8,135.28l23.43,13.53-13.78,23.87,17.47,10.08-6.56,11.37-17.46-10.08-13.83,23.96-23.43-13.53,34.17-59.19Zm-.86,72.91c3.47-6.01,9.31-8.08,17.52-6.2,3.14.73,6.82,2.31,11.03,4.74l3.44,1.99-10.21,17.68-24.22-13.98,2.44-4.23Zm31.83-55.03l24.17,13.96-9.51,16.46-4.53-2.62c-7.87-4.54-12.53-8.88-13.98-13.01-1.18-3.39-.46-7.35,2.16-11.88l1.69-2.92Z"/><path class="cls-3" d="m845.21,174.72l24.22,13.98-34.25,59.32-24.22-13.98,34.25-59.32Zm32.41,18.71l24.22,13.98-34.25,59.32-24.22-13.98,34.25-59.32Zm32.32,18.66l3.92,2.26c10.68,6.17,14.98,13.49,12.88,21.95-.69,2.74-1.92,5.65-3.7,8.72l-23.26,40.29-24.08-13.91,34.25-59.32Z"/></g></g><g id="MA" class="cls-5"><g class="cls-5"><path class="cls-3" d="m908.25,291.9l13.98-24.22,59.32,34.25-13.98,24.22-59.32-34.25Zm18.71-32.4l13.98-24.22,59.32,34.25-13.98,24.22-59.32-34.25Zm18.66-32.32l2.26-3.92c6.17-10.69,13.49-14.98,21.95-12.88,2.74.69,5.65,1.92,8.72,3.7l40.29,23.26-13.91,24.09-59.32-34.25Z"/><path class="cls-3" d="m985.95,201.39c-6.42-3.7-10.27-7.89-11.57-12.55-1.42-5.12-.03-11.32,4.18-18.61l2.26-3.92,59.28,34.22-13.91,24.09-40.24-23.24Zm-.48-43.13l2.26-3.92c6.17-10.69,13.46-14.97,21.88-12.86,2.78.68,5.71,1.91,8.79,3.68l40.24,23.24-13.91,24.09-59.28-34.22Z"/></g></g></svg>