<?xml version="1.0" encoding="UTF-8"?><svg id="Layer_1" xmlns="http://www.w3.org/2000/svg" width="90.77" height="89.13" viewBox="0 0 90.77 89.13"><defs><style>.cls-1{fill:#170f02;}</style></defs><path class="cls-1" d="m.07.04h14.12v14.38h10.53v6.85h-10.53l-.07,31.5H0L.07.04Zm19.15,33.18c0-3.62,2.03-6.08,6.08-7.38,1.55-.49,3.55-.73,6-.73h2v19.89h-14.08v-11.78Zm.03-33.18h14.06v9.92h-2.63c-4.58,0-7.7-.74-9.37-2.23-1.37-1.22-2.05-3.2-2.05-5.93V.04Z"/><path class="cls-1" d="m35.64,0h14.59v68.17h-14.59V0Zm19.53,0h14.59v32.3h-14.59V0Zm19.48,0h2.36c6.44,0,10.29,2.19,11.55,6.56.4,1.42.6,3.05.6,4.91v38.26h-14.51V0Z"/><path class="cls-1" d="m.07,56h14.09v15.31h5.11v-23.12h14.09v40.92h-14.09v-13.83h-5.11v13.83H.07v-33.11Z"/><path class="cls-1" d="m35.7,71.27h14.59v3.91h-14.59v-3.91Z"/><path class="cls-1" d="m55.23,35.71h14.59v53.4h-14.59v-53.4Zm30.53,35.34c3.34,1.38,5.01,3.86,5.01,7.43,0,3.27-1.15,5.84-3.44,7.72-2.4,1.96-5.8,2.94-10.21,2.94h-2.41v-35.72h2.02c4.3,0,7.59,1.08,9.87,3.23,2.08,1.96,3.12,4.5,3.12,7.62s-1.29,5.39-3.88,6.79h-.08Z"/></svg>